<svg id="Calque_1" data-name="Calque 1" xmlns="http://www.w3.org/2000/svg" viewBox="0 0 529.35 191.7"><defs><style>.cls-1{fill:#85898d;}.cls-2{fill:#f06f2e;}</style></defs><title>logo-lagoon-business</title><path class="cls-1" d="M576.79,255.77a31.6,31.6,0,0,0-9-7.12,46.12,46.12,0,0,0-15.18-5.17c-31-5.19-46.39,30.8-46.81,49.35a21.6,21.6,0,0,0,1.95,9.34,23.87,23.87,0,0,0,5.43,7.71,25.52,25.52,0,0,0,8,5.18,26.82,26.82,0,0,0,10.18,1.86,36.55,36.55,0,0,0,9.58-1.53,66.43,66.43,0,0,0,11.28-4.32,78.77,78.77,0,0,0,11.37-6.79,57.3,57.3,0,0,0,9.92-8.9,46.21,46.21,0,0,0,7-10.6,27.56,27.56,0,0,0,2.71-12,24,24,0,0,0-1.7-9A30.48,30.48,0,0,0,576.79,255.77Zm-18.14,23.58a50.69,50.69,0,0,1-18.92,15.86,21.44,21.44,0,0,1-8.48,2.21,6.25,6.25,0,0,1-3.56-.26,3.67,3.67,0,0,1-1.7-1.53,4,4,0,0,1-.51-1.95V292c2-16.34,7.35-24.5,15.73-29.94,5.91-3.84,15.65-.42,17.68,1.27a7.56,7.56,0,0,1,3.06,5.94A17.64,17.64,0,0,1,558.65,279.35Z" transform="translate(-163.71 -182.55)"/><path class="cls-1" d="M692.64,278.67a3,3,0,0,0-1.36-2.2,4.08,4.08,0,0,0-1.61-.43,5.94,5.94,0,0,0-2.88,2.63q-1.37,2.13-3.06,5a16.34,16.34,0,0,1-4.83,5.08q-3.14,2.22-4.67,2.38a6.1,6.1,0,0,1-6.35-2.72,24.28,24.28,0,0,1-3.23-8.14q-1.1-4.92-2.12-10.68a56.52,56.52,0,0,0-3-10.94,22,22,0,0,0-5.86-8.57c-2.54-2.26-6.2-3.77-12-3.23-18,1.66-25.06,38.6-31.46,38.71-1.13.11-1.44-3.25-1.1-7a98.59,98.59,0,0,1,1.61-11.71,90.15,90.15,0,0,0,1.45-9.5,7.21,7.21,0,0,0-1.28-4,16.89,16.89,0,0,0-3.13-3.56,18.48,18.48,0,0,0-4-2.63,8.74,8.74,0,0,0-3.64-1q-3.57,0-5.69,4a46,46,0,0,0-3.73,11,58.78,58.78,0,0,0-1.61,13.15c0,2.15.19,5.37.59,9.66a61.46,61.46,0,0,0,2.63,12.9,35.12,35.12,0,0,0,5.93,11.36,13.83,13.83,0,0,0,10.69,5.26c2.83.11,5.45-1.16,7.89-3.81a43.14,43.14,0,0,0,6.61-10,116.78,116.78,0,0,0,5.43-13.06q2.46-7,4.41-12.9c1.3-3.9,2.44-7,3.39-9.24s1.73-3.28,2.29-3.05c.79,0,1.62,2.85,2.46,8.56a131.62,131.62,0,0,0,3.14,15.35A51.09,51.09,0,0,0,650,298.09a30.92,30.92,0,0,0,9.5,9.93c5.85,3.89,14,3.64,17.84,2,3.17-1.36,6.44-4.88,8.2-7.42a60.57,60.57,0,0,0,4.75-8.31,25.13,25.13,0,0,0,2.45-8.74,30.88,30.88,0,0,0,.34-3.81A13.69,13.69,0,0,0,692.64,278.67Z" transform="translate(-163.71 -182.55)"/><path class="cls-1" d="M498.09,255.77a31.6,31.6,0,0,0-9-7.12,46.12,46.12,0,0,0-15.18-5.17,32.2,32.2,0,0,0-22.79,4.29c-5.05,2.28-12.5,6-15.49,7.66-4.08,2.32-7.69,4.56-10.86,6.71s-8,5.65-14.42,10.51a21.38,21.38,0,0,0-.34-3.13c-.22-1.42-.54-3-.93-4.76s-2.71-17.73-12.5-23.82c-5.95-3.71-16.62-1.05-20.75.25a65.48,65.48,0,0,0-12.63,5.6,88,88,0,0,0-12.64,8.73,91,91,0,0,0-11.11,10.77c-1,1.16-1.92,2.33-2.8,3.51a11,11,0,0,0-1.41,2A50.61,50.61,0,0,0,332,277.3q-1.2,1.93-2.62,4.09a86.75,86.75,0,0,1-6.53,8.65,15.07,15.07,0,0,1-7.63,5.17,2.56,2.56,0,0,1-2.21-1.27,10.85,10.85,0,0,1-1.27-4.33c-.28-2-.54-4.75-.77-8.14,0-1-.06-2.74-.17-5.17a18.93,18.93,0,0,0-1.52-6.78,14.23,14.23,0,0,0-4-5.35q-2.62-2.21-7.21-2-1.86.17-4.49,2.46a49.42,49.42,0,0,0-5.43,5.59q-2.79,3.3-5.93,7.38t-6.36,7.63c-2.16,2.38-4.73,5-7.72,7.89s-5.46,4.44-7.38,4.66q-2.38.18-2.55-2.37,0-5.08,4-13.4a97,97,0,0,1,8.56-14.67,76.32,76.32,0,0,1,8.83-10.43c2.82-2.72,5.59-4.24,8.31-4.59,1.47-.11,2.28.12,2.46.68a3.61,3.61,0,0,1-.09,2,8.81,8.81,0,0,0-.34,2.37,2.18,2.18,0,0,0,1.53,1.87,6.54,6.54,0,0,0,3.05.59,23.35,23.35,0,0,0,2.55-.25,16.87,16.87,0,0,0,4.66-1.78,12.07,12.07,0,0,0,3.82-3.3,13.19,13.19,0,0,0,2.2-4.59,14.14,14.14,0,0,0,.34-5.43,10.25,10.25,0,0,0-2.46-4.92A15.3,15.3,0,0,0,301,236a20,20,0,0,0-5.6-1.87,16.58,16.58,0,0,0-5.26-.17,32.58,32.58,0,0,0-10.43,4.15,64.37,64.37,0,0,0-11.19,8.4A103.35,103.35,0,0,0,258,257.72c-1.27,1.59-5.3,6.16-6.53,7.38q-3,3-8,7.38t-11.36,9.59A153,153,0,0,1,219,291.65A93.89,93.89,0,0,1,205.46,299a31.82,31.82,0,0,1-12.72,3,5.13,5.13,0,0,1-5.34-3.57,25.2,25.2,0,0,1-1.27-8.48A127.77,127.77,0,0,1,188,268.16q1.88-10.77,4.58-20.61t6-18.49q3.32-8.66,6-15.52l4.59-11.62q1.86-4.75,1.86-6.61a9.59,9.59,0,0,0-1.86-5.78,16,16,0,0,0-4.5-4.15,19.62,19.62,0,0,0-5.34-2.29,13.62,13.62,0,0,0-4.41-.51q-3.22.34-6.87,6.79a108.3,108.3,0,0,0-7.21,16.2q-3.57,9.75-6.79,21.45t-5.59,22.65q-2.38,10.93-3.65,19.59a74.21,74.21,0,0,0-1.1,12.38,52.33,52.33,0,0,0,.84,10.69,40.75,40.75,0,0,0,3.39,10.18,34.59,34.59,0,0,0,6.53,8.82,30.59,30.59,0,0,0,10.35,6.27,35.55,35.55,0,0,0,14.75,2.21c6.31,0,14.33-1.5,23-4.5A150.75,150.75,0,0,0,255.41,306a195.59,195.59,0,0,0,25.15-15.35q12.29-8.56,23.39-18.32t21.2-20.27q10.09-10.52,19.25-21.28a134.88,134.88,0,0,0,16.54-22.82c4.41-7.63,7.82-15.49,10.26-23.56s4.1-16.29,4.84-24.67a111.47,111.47,0,0,0-.17-25.32q-1.69-12.63-6.53-23.82c-3.22-7.46-8.14-13.86-14.75-19.25s-15.18-9.24-25.32-11.45A92.29,92.29,0,0,0,298.39,187a109.59,109.59,0,0,0-32.54,7.63,134.46,134.46,0,0,0-31.63,17.51,148.91,148.91,0,0,0-28.47,25.49,134.6,134.6,0,0,0-22.14,31.46,108.76,108.76,0,0,0-12.38,35.7,83.16,83.16,0,0,0-1.69,38.29,68.81,68.81,0,0,0,8.14,33.37,56.13,56.13,0,0,0,18.66,24.33c8.31,6.31,18.83,10.35,31.63,12.12a99.65,99.65,0,0,0,37.46-2.46,124.57,124.57,0,0,0,36.86-15.35,158.17,158.17,0,0,0,33.71-26.75,157.4,157.4,0,0,0,26.24-36.44,119.68,119.68,0,0,0,14.24-43.89,72.76,72.76,0,0,0-1.53-43.55,53.51,53.51,0,0,0-16.88-29.43A59.84,59.84,0,0,0,498.09,255.77Z" transform="translate(-163.71 -182.55)"/></svg>
